<svg width="169" height="81" viewBox="0 0 169 81" fill="none" xmlns="http://www.w3.org/2000/svg">
<g clip-path="url(#clip0_775_357)">
<rect x="1" y="15.5" width="45" height="45" rx="9" fill="#121212"/>
<g filter="url(#filter0_f_775_357)">
<ellipse cx="23.5004" cy="68.3214" rx="27.4286" ry="12.3214" fill="#FFCC00"/>
</g>
<g filter="url(#filter1_f_775_357)">
<ellipse cx="23.5001" cy="73.8929" rx="13.0714" ry="8.89286" fill="#FFCC00"/>
</g>
<g style="mix-blend-mode:plus-lighter" filter="url(#filter2_f_775_357)">
<ellipse cx="22.2148" cy="74.0001" rx="14.3571" ry="8.78571" fill="#FFCC00"/>
</g>
<g clip-path="url(#clip1_775_357)">
<path d="M50.1933 46.2361H47.2117L45.0495 41.3026H37.6092L38.7744 38.6437H43.8844L39.1998 27.9525H42.1814L43.346 30.6108L45.5747 35.697L46.866 38.6437L48.0311 41.3026L50.1933 46.2361Z" fill="white"/>
<path d="M57.6095 27.9525V30.6108H46.3281L45.1636 27.9525H57.6095Z" fill="white"/>
<path d="M57.6095 35.697V38.3554H49.722L48.5569 35.697H57.6095Z" fill="white"/>
<path d="M57.6095 43.5777V46.2361H53.1749L52.0104 43.5777H57.6095Z" fill="white"/>
<path d="M81.0386 27.8164V46.2361H78.2892L70.2601 33.1553V46.2361H58.9816V43.5777H67.5153V30.6108H58.9816V27.9525H70.2601L78.2944 41.0427V27.8164H81.0386Z" fill="white"/>
<path d="M30.5669 42.1769L23.6519 48.875L16.671 42.1124L23.5854 35.4138L25.9346 37.6894L21.3693 42.1119L23.6519 44.3231L28.2172 39.9007L30.5669 42.1769Z" fill="#FFCC00"/>
<path d="M35.2653 37.625L32.9161 39.9007L23.6519 30.9263L14.3877 39.9007L12.0386 37.625L23.6519 26.375L35.2653 37.625Z" fill="white"/>
</g>
</g>
<rect x="1" y="15.5" width="45" height="45" rx="9" stroke="url(#paint0_linear_775_357)" stroke-width="0.75"/>
<path d="M60.8985 59.0945C60.111 58.811 59.2605 58.5117 58.347 58.1967C57.465 57.8502 56.709 57.5195 56.079 57.2045C55.449 56.8895 55.134 56.669 55.134 56.543C55.134 56.417 55.2443 55.8815 55.4648 54.9365C55.7168 53.96 56.0318 52.7315 56.4098 51.251C56.8193 49.739 57.2445 48.101 57.6855 46.337C58.158 44.573 58.6305 42.8247 59.103 41.0922C59.5755 39.3282 60.0165 37.7217 60.426 36.2727C60.8355 34.7922 61.1663 33.611 61.4183 32.729H58.9613L56.835 29.5632L57.1185 28.8072H66.852L69.5925 32.7762C69.9705 34.3197 70.3643 36.068 70.7738 38.021C71.1833 39.9425 71.5928 41.9112 72.0023 43.9272C72.4118 45.9117 72.7898 47.7545 73.1363 49.4555C73.4828 51.1565 73.7663 52.574 73.9868 53.708C74.2073 54.842 74.3333 55.4877 74.3648 55.6452C74.4278 56.0547 74.601 56.3697 74.8845 56.5902C75.168 56.8107 75.672 57.11 76.3965 57.488L75.8295 59C74.8845 58.685 73.9395 58.3227 72.9945 57.9132C72.081 57.5037 71.325 57.11 70.7265 56.732C70.128 56.354 69.813 56.0862 69.7815 55.9287C69.687 54.9207 69.5768 53.897 69.4508 52.8575C69.3248 51.7865 69.183 50.7312 69.0255 49.6917C68.742 49.6602 68.4585 49.6445 68.175 49.6445C67.041 49.6445 65.8598 49.7705 64.6313 50.0225C63.4028 50.2745 62.2845 50.7312 61.2765 51.3927C61.056 52.2747 60.8198 53.1725 60.5678 54.086C60.3473 54.9995 60.1267 55.913 59.9062 56.8265L61.4655 57.5825L60.8985 59.0945ZM64.9148 45.8172C66.1748 45.8172 67.4033 46.1637 68.6003 46.8568C68.2223 44.3367 67.797 41.8955 67.3245 39.533C66.8835 37.139 66.4898 35.0127 66.1432 33.1542C65.7023 34.7607 65.1825 36.6507 64.584 38.8242C64.017 40.9977 63.387 43.4075 62.694 46.0535C63.45 45.896 64.1903 45.8172 64.9148 45.8172ZM87.0337 58.6692C86.2777 58.6692 85.3484 58.4802 84.2459 58.1022C83.1434 57.6927 82.0409 57.173 80.9384 56.543C79.8674 55.8815 78.9697 55.1727 78.2452 54.4167C77.5207 53.6292 77.1584 52.8575 77.1584 52.1015C77.1584 51.3455 77.2057 50.0382 77.3002 48.1797C77.4262 46.3212 77.4892 44.1005 77.4892 41.5175C77.4892 37.4225 79.7257 35.375 84.1987 35.375C84.8917 35.375 85.6949 35.5955 86.6084 36.0365C87.5219 36.446 88.4039 36.9972 89.2544 37.6902C90.1049 38.3517 90.8137 39.0447 91.3807 39.7692C91.9477 40.4937 92.2312 41.171 92.2312 41.801V45.6755C92.2312 48.227 90.8137 49.5027 87.9787 49.5027C87.0967 49.5027 86.0887 49.4555 84.9547 49.361C83.8207 49.235 82.8127 49.0932 81.9307 48.9357C81.8992 49.9752 81.8677 50.9202 81.8362 51.7707C81.8362 52.5897 81.8362 53.0622 81.8362 53.1882C81.8362 53.6922 81.9622 54.0545 82.2142 54.275C82.4662 54.4955 82.9229 54.6057 83.5844 54.6057C84.5609 54.6057 85.6162 54.464 86.7502 54.1805C87.9157 53.8655 88.9552 53.4087 89.8687 52.8102H90.5774L93.1289 56.6847C92.5304 57.2517 91.6327 57.7242 90.4357 58.1022C89.2702 58.4802 88.1362 58.6692 87.0337 58.6692ZM82.0724 43.0295C82.0724 43.2815 82.0567 43.6595 82.0252 44.1635C82.0252 44.6675 82.0252 45.2345 82.0252 45.8645C82.9387 45.959 83.9939 46.0062 85.1909 46.0062C86.1044 46.0062 86.7344 45.7857 87.0809 45.3447C87.4589 44.8722 87.6479 44.1635 87.6479 43.2185V40.667C87.6479 40.3205 87.5534 40.0212 87.3644 39.7692C87.1754 39.5172 86.7659 39.3912 86.1359 39.3912C84.8759 39.3912 83.8837 39.659 83.1592 40.1945C82.4347 40.6985 82.0724 41.6435 82.0724 43.0295ZM122.686 59C120.67 58.244 119.111 57.5667 118.008 56.9682C116.937 56.3382 116.402 55.7712 116.402 55.2672C116.402 54.8262 116.449 54.149 116.543 53.2355C116.669 52.2905 116.732 51.377 116.732 50.495V44.447C116.732 43.817 116.748 43.0295 116.78 42.0845C116.843 41.1395 116.953 40.3362 117.11 39.6747H115.362L112.905 36.4145L113.236 35.6585H117.677C117.803 35.6585 118.071 35.879 118.481 36.32C118.922 36.7295 119.363 37.202 119.804 37.7375C120.402 36.9185 121.142 36.32 122.024 35.942C122.938 35.5325 123.82 35.3277 124.67 35.3277H125.663C126.293 35.3277 126.986 35.5797 127.742 36.0837C128.529 36.5877 129.285 37.202 130.01 37.9265C130.766 38.651 131.38 39.3755 131.852 40.1C132.325 40.793 132.561 41.36 132.561 41.801C132.561 42.5885 132.53 43.565 132.467 44.7305C132.404 45.896 132.372 46.841 132.372 47.5655V51.0147C132.372 52.1487 132.325 53.1567 132.23 54.0387C132.136 54.8892 132.089 55.535 132.089 55.976C132.089 56.291 132.199 56.543 132.419 56.732C132.671 56.8895 133.27 57.2202 134.215 57.7242L133.648 59C131.632 58.244 130.073 57.5667 128.97 56.9682C127.899 56.3382 127.364 55.7712 127.364 55.2672C127.364 54.8262 127.411 54.149 127.505 53.2355C127.631 52.2905 127.694 51.377 127.694 50.495V48.038C127.694 47.03 127.726 45.8802 127.789 44.5887C127.852 43.2972 127.883 42.1632 127.883 41.1867C127.883 40.5567 127.805 40.1315 127.647 39.911C127.49 39.6905 127.143 39.5802 126.608 39.5802C124.844 39.5802 123.536 40.037 122.686 40.9505C121.835 41.8325 121.41 43.061 121.41 44.636V51.0147C121.41 52.1487 121.363 53.1567 121.268 54.0387C121.174 54.8892 121.127 55.535 121.127 55.976C121.127 56.291 121.237 56.543 121.457 56.732C121.709 56.8895 122.308 57.2202 123.253 57.7242L122.686 59Z" fill="white"/>
<path d="M105.157 58.7637C104.401 58.7637 103.487 58.5747 102.416 58.1967C101.345 57.8187 100.306 57.3147 99.2976 56.6847C98.2896 56.0547 97.4391 55.3302 96.7461 54.5112C96.0846 53.6922 95.7539 52.8575 95.7539 52.007C95.7539 51.629 95.8011 50.5265 95.8956 48.6995C96.0216 46.8725 96.0846 44.5887 96.0846 41.8482C96.0846 39.6432 96.7304 38.021 98.0219 36.9815C99.3134 35.942 101.251 35.4222 103.834 35.4222C104.59 35.4222 105.424 35.6585 106.338 36.131C107.283 36.6035 108.181 37.2177 109.031 37.9737C109.882 38.7297 110.575 39.533 111.11 40.3835C111.677 41.2025 111.961 41.9742 111.961 42.6987C111.961 43.8957 111.929 45.1872 111.866 46.5732C111.835 47.9592 111.819 49.739 111.819 51.9125C111.819 53.9285 111.268 55.5822 110.165 56.8737C109.063 58.1337 107.393 58.7637 105.157 58.7637ZM102.133 54.7475C103.865 54.7475 105.125 54.3852 105.913 53.6607C106.732 52.9362 107.141 51.8652 107.141 50.4477C107.141 49.4397 107.157 48.3057 107.188 47.0457C107.22 45.7542 107.251 44.573 107.283 43.502C107.314 42.3995 107.33 41.6277 107.33 41.1867C107.33 40.6512 107.236 40.2575 107.047 40.0055C106.858 39.722 106.48 39.5802 105.913 39.5802C104.212 39.5802 102.904 39.8795 101.991 40.478C101.109 41.045 100.668 42.1317 100.668 43.7382C100.668 46.7622 100.636 49.046 100.573 50.5895C100.51 52.1015 100.479 53.1252 100.479 53.6607C100.479 54.3852 101.03 54.7475 102.133 54.7475Z" fill="#FFCC00"/>
<defs>
<filter id="filter0_f_775_357" x="-36.0711" y="23.8571" width="119.143" height="88.9286" filterUnits="userSpaceOnUse" color-interpolation-filters="sRGB">
<feFlood flood-opacity="0" result="BackgroundImageFix"/>
<feBlend mode="normal" in="SourceGraphic" in2="BackgroundImageFix" result="shape"/>
<feGaussianBlur stdDeviation="16.0714" result="effect1_foregroundBlur_775_357"/>
</filter>
<filter id="filter1_f_775_357" x="-0.285576" y="54.2857" width="47.5714" height="39.2143" filterUnits="userSpaceOnUse" color-interpolation-filters="sRGB">
<feFlood flood-opacity="0" result="BackgroundImageFix"/>
<feBlend mode="normal" in="SourceGraphic" in2="BackgroundImageFix" result="shape"/>
<feGaussianBlur stdDeviation="5.35714" result="effect1_foregroundBlur_775_357"/>
</filter>
<filter id="filter2_f_775_357" x="-2.85662" y="54.5001" width="50.1429" height="39" filterUnits="userSpaceOnUse" color-interpolation-filters="sRGB">
<feFlood flood-opacity="0" result="BackgroundImageFix"/>
<feBlend mode="normal" in="SourceGraphic" in2="BackgroundImageFix" result="shape"/>
<feGaussianBlur stdDeviation="5.35714" result="effect1_foregroundBlur_775_357"/>
</filter>
<linearGradient id="paint0_linear_775_357" x1="23.3317" y1="8.88776" x2="25.7826" y2="60.3914" gradientUnits="userSpaceOnUse">
<stop stop-color="#FFCC00" stop-opacity="0"/>
<stop offset="1" stop-color="#FFCC00" stop-opacity="0.8"/>
</linearGradient>
<clipPath id="clip0_775_357">
<rect x="1" y="15.5" width="45" height="45" rx="9" fill="white"/>
</clipPath>
<clipPath id="clip1_775_357">
<rect width="23.25" height="26.25" fill="white" transform="translate(12.25 24.5)"/>
</clipPath>
</defs>
</svg>
